<svg xmlns="http://www.w3.org/2000/svg" viewBox="0 0 189.8 52.0" width="190" height="52">
<g transform="translate(2 2)">
<path fill="#0E7C72" d="M12 0 L27.8 0 L27.8 14.8 Q27.8 17.8 24.8 17.8 L20.8 17.8 Q17.8 17.8 17.8 20.8 L17.8 48 L12 48 A12 12 0 0 1 0 36 L0 12 A12 12 0 0 1 12 0 Z"/>
<path fill="#0F172A" d="M30.2 0 L36 0 A12 12 0 0 1 48 12 L48 36 A12 12 0 0 1 36 48 L20.2 48 L20.2 23.2 Q20.2 20.2 23.2 20.2 L27.2 20.2 Q30.2 20.2 30.2 17.2 Z"/>
</g>
<path fill="#0F172A" d="M70.805 35.747Q68.996 35.747 67.6595 35.085499999999996Q66.323 34.424 65.378 33.236000000000004L68.213 30.509000000000004Q68.699 31.184000000000005 69.3605 31.535000000000004Q70.022 31.886000000000003 70.859 31.886000000000003Q71.669 31.886000000000003 72.263 31.548500000000004Q72.857 31.211000000000002 73.208 30.576500000000003Q73.559 29.942000000000004 73.559 28.997000000000003V16.388H77.825V28.754000000000005Q77.825 30.887000000000004 76.961 32.453Q76.097 34.019000000000005 74.531 34.883Q72.965 35.747 70.805 35.747Z M87.14 35.747Q85.11500000000001 35.747 83.48150000000001 34.8425Q81.848 33.938 80.90299999999999 32.372Q79.958 30.806000000000004 79.958 28.862000000000002Q79.958 26.918000000000003 80.90299999999999 25.379000000000005Q81.848 23.840000000000003 83.468 22.935500000000005Q85.08800000000001 22.031000000000002 87.14 22.031000000000002Q89.19200000000001 22.031000000000002 90.81200000000001 22.922000000000004Q92.432 23.813000000000002 93.37700000000001 25.365500000000004Q94.322 26.918000000000003 94.322 28.862000000000002Q94.322 30.806000000000004 93.37700000000001 32.372Q92.432 33.938 90.81200000000001 34.8425Q89.19200000000001 35.747 87.14 35.747ZM87.14 31.994000000000003Q88.031 31.994000000000003 88.706 31.602500000000003Q89.381 31.211000000000002 89.74549999999999 30.4955Q90.11 29.78 90.11 28.862000000000002Q90.11 27.944000000000003 89.732 27.255500000000005Q89.354 26.567000000000004 88.6925 26.175500000000003Q88.031 25.784000000000002 87.14 25.784000000000002Q86.27600000000001 25.784000000000002 85.601 26.175500000000003Q84.926 26.567000000000004 84.548 27.269000000000005Q84.17 27.971000000000004 84.17 28.889000000000003Q84.17 29.78 84.548 30.4955Q84.926 31.211000000000002 85.601 31.602500000000003Q86.27600000000001 31.994000000000003 87.14 31.994000000000003Z M103.934 35.720000000000006Q102.61099999999999 35.720000000000006 101.50399999999999 35.1665Q100.39699999999999 34.613 99.695 33.6815Q98.993 32.75 98.88499999999999 31.589000000000002V26.054000000000002Q98.993 24.893 99.695 23.988500000000002Q100.39699999999999 23.084000000000003 101.50399999999999 22.571000000000005Q102.61099999999999 22.058000000000003 103.934 22.058000000000003Q105.797 22.058000000000003 107.2415 22.949000000000005Q108.68599999999999 23.840000000000003 109.5095 25.379000000000005Q110.333 26.918000000000003 110.333 28.889000000000003Q110.333 30.860000000000003 109.5095 32.399Q108.68599999999999 33.938 107.2415 34.82900000000001Q105.797 35.720000000000006 103.934 35.720000000000006ZM96.374 35.45V15.848000000000003H100.505V25.541000000000004L99.83 28.727000000000004L100.451 31.913000000000004V35.45ZM103.205 31.994000000000003Q104.069 31.994000000000003 104.7305 31.589000000000006Q105.392 31.184000000000005 105.77 30.482000000000003Q106.148 29.78 106.148 28.889000000000003Q106.148 27.971000000000004 105.77 27.269000000000005Q105.392 26.567000000000004 104.7305 26.175500000000003Q104.069 25.784000000000002 103.205 25.784000000000002Q102.341 25.784000000000002 101.666 26.175500000000003Q100.991 26.567000000000004 100.6265 27.269000000000005Q100.262 27.971000000000004 100.262 28.889000000000003Q100.262 29.807000000000002 100.64 30.509Q101.018 31.211000000000002 101.67949999999999 31.602500000000003Q102.341 31.994000000000003 103.205 31.994000000000003Z"/>
<path fill="#0E7C72" d="M113.695 35.45V16.712000000000003H115.47699999999999L123.41499999999999 29.753000000000004H122.19999999999999L130.138 16.712000000000003H131.92V35.45H129.382V21.167L129.976 21.329L123.71199999999999 31.616000000000003H121.92999999999999L115.666 21.329L116.23299999999999 21.167V35.45Z M141.36999999999998 35.720000000000006Q139.61499999999998 35.720000000000006 138.18399999999997 34.8425Q136.753 33.965 135.9295 32.453Q135.106 30.941000000000003 135.106 29.051000000000002Q135.106 27.161 135.9295 25.649Q136.753 24.137 138.1705 23.246000000000002Q139.588 22.355000000000004 141.36999999999998 22.355000000000004Q142.82799999999997 22.355000000000004 143.97549999999998 22.962500000000006Q145.123 23.570000000000004 145.825 24.636500000000005Q146.527 25.703000000000003 146.60799999999998 27.107000000000003V30.968000000000004Q146.527 32.345000000000006 145.83849999999998 33.425000000000004Q145.14999999999998 34.505 144.0025 35.112500000000004Q142.855 35.720000000000006 141.36999999999998 35.720000000000006ZM141.77499999999998 33.425000000000004Q143.58399999999997 33.425000000000004 144.69099999999997 32.1965Q145.79799999999997 30.968000000000004 145.79799999999997 29.051000000000002Q145.79799999999997 27.728 145.2985 26.742500000000003Q144.79899999999998 25.757000000000005 143.88099999999997 25.203500000000005Q142.963 24.650000000000002 141.748 24.650000000000002Q140.533 24.650000000000002 139.6015 25.217000000000002Q138.67 25.784000000000002 138.1435 26.7695Q137.617 27.755000000000003 137.617 29.024Q137.617 30.320000000000004 138.1435 31.305500000000002Q138.67 32.291000000000004 139.61499999999998 32.858000000000004Q140.55999999999997 33.425000000000004 141.77499999999998 33.425000000000004ZM145.636 35.45V31.994000000000003L146.095 28.862000000000002L145.636 25.757000000000005V22.625000000000004H148.093V35.45Z M153.601 35.45V17.252000000000002H156.03099999999998V35.45ZM150.44199999999998 24.839000000000002V22.625000000000004H159.19V24.839000000000002Z M167.42499999999998 35.720000000000006Q165.535 35.720000000000006 164.0095 34.82900000000001Q162.48399999999998 33.938 161.60649999999998 32.4125Q160.72899999999998 30.887000000000004 160.72899999999998 29.024Q160.72899999999998 27.134 161.60649999999998 25.622Q162.48399999999998 24.110000000000003 164.0095 23.2325Q165.535 22.355000000000004 167.42499999999998 22.355000000000004Q168.91 22.355000000000004 170.17899999999997 22.908500000000004Q171.44799999999998 23.462000000000003 172.36599999999999 24.515L170.74599999999998 26.135000000000005Q170.152 25.433000000000003 169.30149999999998 25.0685Q168.451 24.704 167.42499999999998 24.704Q166.20999999999998 24.704 165.265 25.2575Q164.32 25.811000000000003 163.77999999999997 26.783Q163.23999999999998 27.755000000000003 163.23999999999998 29.024Q163.23999999999998 30.293000000000003 163.77999999999997 31.265Q164.32 32.237 165.265 32.804Q166.20999999999998 33.371 167.42499999999998 33.371Q168.451 33.371 169.30149999999998 33.0065Q170.152 32.642 170.773 31.940000000000005L172.36599999999999 33.56Q171.475 34.586000000000006 170.1925 35.153000000000006Q168.91 35.720000000000006 167.42499999999998 35.720000000000006Z M183.841 35.45V27.971000000000004Q183.841 26.513000000000005 182.923 25.568000000000005Q182.005 24.623000000000005 180.547 24.623000000000005Q179.575 24.623000000000005 178.819 25.055000000000003Q178.063 25.487000000000002 177.63099999999997 26.243000000000002Q177.19899999999998 26.999000000000002 177.19899999999998 27.971000000000004L176.2 27.404000000000003Q176.2 25.946000000000005 176.84799999999998 24.812000000000005Q177.49599999999998 23.678000000000004 178.65699999999998 23.016500000000004Q179.81799999999998 22.355000000000004 181.27599999999998 22.355000000000004Q182.73399999999998 22.355000000000004 183.85449999999997 23.003000000000004Q184.975 23.651000000000003 185.623 24.812000000000005Q186.271 25.973000000000003 186.271 27.485000000000003V35.45ZM174.769 35.45V16.172000000000004H177.19899999999998V35.45Z"/>
</svg>